<svg xmlns="http://www.w3.org/2000/svg" width="185" height="46" fill="none" xmlns:v="https://vecta.io/nano"><g clip-path="url(#A)"><g fill="#47585b"><path d="M3.67 18.129l2.607 10.023 1.468 6.277h.12c.449-1.994 1.095-4.108 1.753-6.277l3.22-10.023h3.012l3.056 9.859 1.753 6.441h.153a58.39 58.39 0 0 1 1.501-6.397l2.815-9.859h3.549l-6.364 19.718h-3.286l-3.012-9.41-1.753-6.474h-.022a59.3 59.3 0 0 1-1.851 6.474l-3.177 9.377H5.926L0 18.129h3.67zm46.029 9.706c0 7.296-5.05 10.472-9.859 10.472-5.346 0-9.464-3.911-9.464-10.155 0-6.573 4.327-10.472 9.782-10.472 5.707 0 9.541 4.119 9.541 10.154zm-15.654.197c0 4.327 2.487 7.58 5.992 7.58s5.992-3.221 5.992-7.668c0-3.341-1.665-7.58-5.904-7.58s-6.08 3.922-6.08 7.668zm20.189-3.746l-.164-6.156h3.144l.12 3.867h.164c.34-1.206 1.053-2.273 2.037-3.049s2.189-1.219 3.441-1.267c.343-.004.686.037 1.019.12v3.385a5.58 5.58 0 0 0-1.216-.12c-2.53 0-4.327 1.917-4.809 4.601a9.55 9.55 0 0 0-.186 1.72v10.516h-3.549V24.286zM67.741 8.917h3.582v28.941h-3.582V8.917zm26.652 0v23.847l.164 5.094h-3.221l-.153-3.429h-.088c-.639 1.224-1.613 2.24-2.807 2.933a7.29 7.29 0 0 1-3.94.978c-4.765 0-8.435-4.031-8.435-10.023 0-6.573 4.031-10.604 8.84-10.604a6.57 6.57 0 0 1 3.391.693c1.048.53 1.935 1.331 2.569 2.319h.077V8.917h3.604zM90.81 26.159a6.45 6.45 0 0 0-.164-1.512 5.27 5.27 0 0 0-5.203-4.152c-3.713 0-5.915 3.286-5.915 7.668 0 3.987 1.961 7.296 5.828 7.296a5.39 5.39 0 0 0 5.258-4.283 6.31 6.31 0 0 0 .197-1.599v-3.418z"/></g><g fill="#ffba08"><path d="M104.678 13.397v4.732h5.138v2.684h-5.138V31.45c0 2.454.702 3.834 2.695 3.834a6.74 6.74 0 0 0 2.082-.241l.164 2.684a8.7 8.7 0 0 1-3.188.537 4.96 4.96 0 0 1-3.867-1.555c-1.018-1.095-1.391-2.804-1.391-5.127V20.813h-3.056v-2.684h3.056v-3.626l3.505-1.106zm9.18 10.889l-.164-6.156h3.144l.12 3.867h.164a5.93 5.93 0 0 1 5.478-4.316 3.99 3.99 0 0 1 1.018.12v3.385a5.63 5.63 0 0 0-1.216-.12c-2.53 0-4.381 1.917-4.809 4.601a9.52 9.52 0 0 0-.164 1.676v10.516h-3.549l-.022-13.572zm17.494-11.7a2.22 2.22 0 0 1-.651 1.572c-.417.417-.983.651-1.573.651a2.22 2.22 0 0 1-1.572-.651c-.417-.417-.651-.983-.651-1.572-.008-.297.045-.592.155-.868a2.17 2.17 0 0 1 .486-.736 2.19 2.19 0 0 1 1.604-.641c.293-.002.584.056.855.169a2.19 2.19 0 0 1 .721.488c.205.209.367.458.474.731a2.19 2.19 0 0 1 .152.858zm-3.998 25.271V18.14h3.593v19.718h-3.593zm9.574-13.287l-.165-6.441h3.221l.153 3.385h.077a7.74 7.74 0 0 1 2.973-2.891c1.235-.675 2.631-1.001 4.038-.943 4.765 0 8.358 4.031 8.358 10.023 0 7.098-4.382 10.604-8.972 10.604a6.9 6.9 0 0 1-3.443-.749c-1.064-.543-1.969-1.354-2.625-2.351h-.088V45.92h-3.527V24.57zm3.538 5.258a8.52 8.52 0 0 0 .164 1.468c.301 1.199.993 2.263 1.968 3.023a5.54 5.54 0 0 0 3.411 1.172c3.79 0 5.992-3.1 5.992-7.668 0-3.954-2.082-7.328-5.872-7.328-1.266.036-2.484.491-3.463 1.294s-1.665 1.908-1.948 3.143c-.151.476-.235.969-.252 1.468v3.429z"/></g><path d="M-1.095 35.218c101.326 9.421 160.917-17.089 160.917-17.089S117.922 47.914-2.64 42.141" fill="#f5f8fa"/><g stroke-miterlimit="10"><path d="M101.217 32.863c36.817-5.641 56.962-14.624 56.962-14.624s-20.813 14.24-55.428 18.765" stroke="#ffba08"/><path d="M5.389 35.985a421.74 421.74 0 0 0 95.828-3.122" stroke="#47585b"/></g><g fill="#47585b"><path d="M174.676 22.489l-1.654-10.461-.898.734a22.33 22.33 0 0 1-6.792 4.108c-.392.172-.82.244-1.246.209a2.6 2.6 0 0 1-1.197-.406l-4.732-2.848a2.19 2.19 0 0 1 2.191-.92c1.251.133 2.51.196 3.768.186a1.89 1.89 0 0 0 1.096-.372l13.145-11.217A6.02 6.02 0 0 1 182.486 0c1.359 0 1.928.898 1.348 2.191A5.64 5.64 0 0 1 182.53 3.9l-3.954 3.385a1.45 1.45 0 0 0-.419.481 1.47 1.47 0 0 0-.173.614l-.92 11.108a2.31 2.31 0 0 1-.274 1.074 2.3 2.3 0 0 1-.745.821c-.475.345-.932.714-1.369 1.106zM162.604 6.923c1.019-.876 1.731-2.016 3.374-1.764s3.287.263 5.017.383l.559.077-3.538 2.969a.58.58 0 0 1-.46.099l-4.59-1.479c-.11-.033-.186-.142-.362-.285z"/></g></g><defs><clipPath id="A"><path fill="#fff" d="M0 0h184.064v45.92H0z"/></clipPath></defs></svg>